<svg width="15" height="15" viewBox="0 0 15 15" fill="none" xmlns="http://www.w3.org/2000/svg">
<path d="M4.99167 1.68009L14.175 0.00672996C14.6333 -0.0602043 15 0.383235 15 0.843408V11.2349C15 12.8581 13.6917 14.1633 12.0833 14.1633C10.475 14.1633 9.16667 12.8581 9.16667 11.2349C9.16667 9.62016 10.475 8.30658 12.0833 8.30658C12.5333 8.30658 12.95 8.42371 13.3333 8.59941V3.35344L5.83333 5.0268V12.49C5.63333 13.9123 4.38333 15 2.91667 15C1.30833 15 0 13.6948 0 12.0716C0 10.4568 1.30833 9.14325 2.91667 9.14325C3.36667 9.14325 3.78333 9.26039 4.16667 9.43609V2.51676C4.16667 2.05659 4.53333 1.75539 4.99167 1.68009Z" fill="white"/>
</svg>
