<svg width="20" height="20" viewBox="0 0 20 20" fill="none" xmlns="http://www.w3.org/2000/svg">
<path fill-rule="evenodd" clip-rule="evenodd" d="M0 3C0 2.20435 0.316071 1.44129 0.87868 0.87868C1.44129 0.316071 2.20435 0 3 0H13C13.7956 0 14.5587 0.316071 15.1213 0.87868C15.6839 1.44129 16 2.20435 16 3V9C16 9.79565 15.6839 10.5587 15.1213 11.1213C14.5587 11.6839 13.7956 12 13 12H9.414L5.707 15.707C5.56715 15.8468 5.38898 15.942 5.19503 15.9806C5.00108 16.0192 4.80005 15.9993 4.61735 15.9237C4.43465 15.848 4.27848 15.7199 4.1686 15.5555C4.05871 15.391 4.00004 15.1978 4 15V12H3C2.20435 12 1.44129 11.6839 0.87868 11.1213C0.316071 10.5587 0 9.79565 0 9V3ZM20 7V13C20 14 19.4 16 17 16H16V19C16 19.333 15.8 20 15 20C14.797 20 14.632 19.957 14.5 19.887L10.613 16H7L10 13H13C14.333 13 17 12.2 17 9V4C18 4 20 4.6 20 7Z" fill="#DCD7E1"/>
</svg>
