<svg width="20" height="17" viewBox="0 0 20 17" fill="none" xmlns="http://www.w3.org/2000/svg">
<path d="M19.3762 2.39898C18.5386 0.779361 16.1258 -0.545784 13.3191 0.225745C11.9779 0.590742 10.8078 1.37349 9.99986 2.4461C9.19192 1.37349 8.02178 0.590742 6.68062 0.225745C3.86771 -0.534005 1.46111 0.779361 0.623483 2.39898C-0.55169 4.66645 -0.0641182 7.21662 2.0737 9.97881C3.74894 12.1403 6.14304 14.3312 9.61856 16.8755C9.72839 16.9562 9.86369 17 10.003 17C10.1423 17 10.2776 16.9562 10.3874 16.8755C13.8567 14.3371 16.257 12.1638 17.9323 9.97881C20.0638 7.21662 20.5514 4.66645 19.3762 2.39898Z" fill="#DCD7E1"/>
</svg>
