<svg width="23" height="21" viewBox="0 0 23 21" xmlns="http://www.w3.org/2000/svg">
<path d="M21.6371 2.31983L20.1615 1.70121V11.6765L22.8375 5.20305C23.289 4.07628 22.7714 2.7838 21.6371 2.31983ZM0.163366 6.40715L5.62541 19.6081C5.78625 20.0097 6.0606 20.3555 6.41473 20.6028C6.76885 20.8501 7.1873 20.9881 7.61862 21C7.90494 21 8.20226 20.9448 8.48858 20.8233L16.6046 17.454C17.4305 17.1115 17.937 16.2941 17.9591 15.4766C17.9701 15.1894 17.915 14.869 17.8159 14.5818L12.3098 1.38085C12.1542 0.97656 11.8808 0.628631 11.5253 0.382349C11.1698 0.136066 10.7486 0.00283653 10.3166 0C10.0303 0 9.74397 0.066281 9.46867 0.165702L1.3637 3.53498C0.824938 3.7563 0.395846 4.18318 0.170758 4.72178C-0.0543297 5.26037 -0.0569886 5.86659 0.163366 6.40715ZM17.9481 2.20936C17.9481 1.6234 17.716 1.06144 17.303 0.647107C16.8899 0.232771 16.3297 0 15.7456 0H14.1488L17.9481 9.21305" fill="#DCD7E1"/>
</svg>
